<svg width="119" height="48" viewBox="0 0 119 48" fill="none" xmlns="http://www.w3.org/2000/svg">
<path d="M33 3L15 0V48L33 45V3Z" fill="#222427"/>
<rect width="3" height="3" transform="matrix(-1 0 0 1 21 21)" fill="white"/>
<rect width="15" height="42" transform="matrix(-1 0 0 1 15 2.99902)" fill="#8BBF1F"/>
<path d="M46.3721 4H49.4834V5.62107C51.4608 5.62107 52.816 5.9588 53.5488 6.63424C54.2817 7.29618 54.6482 8.5998 54.6482 10.5451V12.5106C54.6482 13.2536 54.579 13.875 54.4407 14.3749C54.3025 14.8612 54.0536 15.307 53.694 15.7123C53.3345 16.104 52.809 16.3945 52.1176 16.5836C51.4263 16.7727 50.5482 16.8673 49.4834 16.8673V18.4276H46.3721V16.8673C45.3074 16.8673 44.4293 16.7727 43.7379 16.5836C43.0465 16.3945 42.5211 16.104 42.1615 15.7123C41.802 15.307 41.5531 14.8612 41.4148 14.3749C41.2766 13.875 41.2074 13.2536 41.2074 12.5106V10.5451C41.2074 8.58629 41.5739 7.27592 42.3067 6.61398C43.0396 5.95204 44.3948 5.62107 46.3721 5.62107V4ZM49.4834 7.68794V14.8004H49.919C50.403 14.8004 50.7349 14.618 50.9146 14.2533C51.1082 13.8886 51.205 13.2671 51.205 12.3891V9.99797C51.205 9.11989 51.1082 8.51874 50.9146 8.19453C50.7349 7.8568 50.403 7.68794 49.919 7.68794H49.4834ZM46.3721 14.8004V7.68794H45.9366C45.4526 7.68794 45.1138 7.8568 44.9202 8.19453C44.7405 8.51874 44.6506 9.11989 44.6506 9.99797V12.3891C44.6506 13.2671 44.7405 13.8886 44.9202 14.2533C45.1138 14.618 45.4526 14.8004 45.9366 14.8004H46.3721Z" fill="#222427"/>
<path d="M60.2149 12.693H61.4594L60.8579 6.2695H60.8164L60.2149 12.693ZM58.8874 4H63.6166L65.5248 18.4276H62.1024L61.7083 14.8815H59.8416L59.2815 18.4276H56.3777L58.8874 4Z" fill="#222427"/>
<path d="M70.7076 11.7406V16.3607H71.2468C71.8138 16.3607 72.1664 16.2121 72.3047 15.9149C72.4568 15.6177 72.5328 15.0098 72.5328 14.0912C72.5328 13.1591 72.4568 12.5377 72.3047 12.2269C72.1664 11.9027 71.8138 11.7406 71.2468 11.7406H70.7076ZM67.2644 4H74.9596V6.06687H70.7076V9.67376H72.2839C72.8509 9.67376 73.3349 9.73455 73.7359 9.85613C74.1369 9.9642 74.5172 10.1668 74.8767 10.464C75.2362 10.7612 75.5058 11.2138 75.6856 11.8217C75.8792 12.4296 75.976 13.1861 75.976 14.0912C75.976 15.7258 75.651 16.8605 75.0011 17.4954C74.365 18.1169 73.4731 18.4276 72.3254 18.4276H67.2644V4Z" fill="#222427"/>
<path d="M81.3661 6.06687V10.7882H81.9054C82.4724 10.7882 82.825 10.6329 82.9633 10.3222C83.1154 9.99797 83.1914 9.36981 83.1914 8.43769C83.1914 7.50557 83.1154 6.87741 82.9633 6.55319C82.825 6.22898 82.4724 6.06687 81.9054 6.06687H81.3661ZM81.3661 12.8551V18.4276H77.923V4H82.1336C83.627 4 84.7471 4.2229 85.4938 4.66869C86.2543 5.11449 86.6346 5.92502 86.6346 7.1003V9.73455C86.6346 10.7477 86.2405 11.5245 85.4523 12.0648C84.6779 12.5917 83.7376 12.8551 82.6314 12.8551H81.3661Z" fill="#222427"/>
<path d="M88.5816 4H91.6928V12.2269H91.7136L94.0782 4H97.4798V18.4276H94.3685V10.1196H94.3478L91.9417 18.4276H88.5816V4Z" fill="#222427"/>
<path d="M102.866 4V10.5451H102.907L105.085 4H108.362L106.06 10.3627L108.383 18.4276H104.981L102.907 11.1125H102.866V18.4276H99.4224V4H102.866Z" fill="#222427"/>
<path d="M113.69 12.693H114.935L114.333 6.2695H114.292L113.69 12.693ZM112.363 4H117.092L119 18.4276H115.578L115.183 14.8815H113.317L112.757 18.4276H109.853L112.363 4Z" fill="#222427"/>
<path d="M42.4104 26.7964H50.2924V39.0355H50.9976V44H47.7826V41.2239H44.215V44H41V39.0355H41.7052C41.9818 38.1439 42.1685 37.232 42.2653 36.2999C42.3621 35.3543 42.4104 34.0912 42.4104 32.5106V26.7964ZM46.8492 28.9848H45.3143V32.693C45.3143 35.5029 45.0585 37.617 44.5469 39.0355H46.8492V28.9848Z" fill="#222427"/>
<path d="M56.1801 34.7194V39.157C56.9822 39.157 57.4869 39.0287 57.6943 38.772C57.9017 38.5019 58.0054 37.8399 58.0054 36.7862C58.0054 36.2729 57.9847 35.8811 57.9432 35.6109C57.9017 35.3273 57.7911 35.1179 57.6113 34.9828C57.4454 34.8477 57.2725 34.7734 57.0928 34.7599C56.913 34.7329 56.6088 34.7194 56.1801 34.7194ZM52.737 41.2239V26.7964H56.2216C56.7471 26.7964 57.155 26.8031 57.4454 26.8166C57.7358 26.8166 58.0953 26.8436 58.524 26.8977C58.9526 26.9382 59.2845 27.0057 59.5196 27.1003C59.7547 27.1814 60.0105 27.3097 60.287 27.4853C60.5774 27.6474 60.7918 27.85 60.93 28.0932C61.0821 28.3364 61.2066 28.6471 61.3034 29.0253C61.4002 29.3901 61.4486 29.8156 61.4486 30.3019C61.4486 32.3012 60.6327 33.3752 59.001 33.5238V33.6657C59.5265 33.6657 59.9621 33.7535 60.3078 33.9291C60.6535 34.1047 60.9024 34.3681 61.0545 34.7194C61.2066 35.0571 61.3103 35.4083 61.3656 35.773C61.4209 36.1243 61.4486 36.5701 61.4486 37.1104C61.4486 37.6778 61.4071 38.1709 61.3241 38.5897C61.255 39.0084 61.1651 39.3664 61.0545 39.6636C60.9439 39.9608 60.7641 40.2107 60.5152 40.4134C60.2801 40.6025 60.045 40.7511 59.81 40.8592C59.5887 40.9672 59.2638 41.0483 58.8351 41.1023C58.4064 41.1564 58.0193 41.1901 57.6736 41.2036C57.3279 41.2172 56.8439 41.2239 56.2216 41.2239H52.737ZM56.1801 28.8632V32.6525C56.9683 32.6525 57.4661 32.5377 57.6736 32.308C57.8948 32.0648 58.0054 31.5515 58.0054 30.768C58.0054 29.971 57.8948 29.4576 57.6736 29.228C57.4523 28.9848 56.9545 28.8632 56.1801 28.8632Z" fill="#222427"/>
<path d="M63.3956 26.7964H70.5308V28.9848H66.8387V32.1459H70.4063V34.3343H66.8387V39.0355H70.5308V41.2239H63.3956V26.7964Z" fill="#222427"/>
<path d="M75.5932 28.8632V33.5846H76.1325C76.6995 33.5846 77.0521 33.4292 77.1904 33.1185C77.3425 32.7943 77.4185 32.1662 77.4185 31.234C77.4185 30.3019 77.3425 29.6738 77.1904 29.3495C77.0521 29.0253 76.6995 28.8632 76.1325 28.8632H75.5932ZM75.5932 35.6515V41.2239H72.1501V26.7964H76.3607C77.8541 26.7964 78.9742 27.0192 79.7209 27.465C80.4814 27.9108 80.8617 28.7214 80.8617 29.8967V32.5309C80.8617 33.5441 80.4676 34.3208 79.6794 34.8612C78.905 35.388 77.9647 35.6515 76.8585 35.6515H75.5932Z" fill="#222427"/>
<path d="M82.8087 26.7964H89.9439V28.9848H86.2518V32.1459H89.8194V34.3343H86.2518V39.0355H89.9439V41.2239H82.8087V26.7964Z" fill="#222427"/>
<path d="M91.5632 26.7964H94.6745V35.0233H94.6952L97.0598 26.7964H100.461V41.2239H97.3502V32.9159H97.3294L94.9234 41.2239H91.5632V26.7964ZM93.2433 23.23H94.3219C94.4463 23.973 95.0617 24.3445 96.1679 24.3445C97.0944 24.3445 97.6337 23.973 97.7858 23.23H98.8851C98.8851 24.1216 98.6154 24.797 98.0761 25.2563C97.5369 25.7021 96.8316 25.925 95.9605 25.925C95.1723 25.925 94.5224 25.6819 94.0107 25.1955C93.4991 24.7092 93.2433 24.054 93.2433 23.23Z" fill="#222427"/>
</svg>
