<svg width="24" height="24" viewBox="0 0 24 24" fill="none" xmlns="http://www.w3.org/2000/svg">
<path fill-rule="evenodd" clip-rule="evenodd" d="M4 1C4 0.447715 3.55228 0 3 0C2.44772 0 2 0.447715 2 1V21.8461C2 22.6422 2.81935 23.1746 3.54675 22.8513L12 19.0943L20.4532 22.8513C21.1807 23.1746 22 22.6422 22 21.8461V1C22 0.447715 21.5523 0 21 0C20.4477 0 20 0.447715 20 1V20.4612L12.4468 17.1042C12.1623 16.9778 11.8377 16.9778 11.5532 17.1042L4 20.4612V1ZM16.7071 4.29289C17.0976 4.68342 17.0976 5.31658 16.7071 5.70711L8.70711 13.7071C8.31658 14.0976 7.68342 14.0976 7.29289 13.7071C6.90237 13.3166 6.90237 12.6834 7.29289 12.2929L15.2929 4.29289C15.6834 3.90237 16.3166 3.90237 16.7071 4.29289ZM9 8C10.1046 8 11 7.10457 11 6C11 4.89543 10.1046 4 9 4C7.89543 4 7 4.89543 7 6C7 7.10457 7.89543 8 9 8ZM15 14C16.1046 14 17 13.1046 17 12C17 10.8954 16.1046 10 15 10C13.8954 10 13 10.8954 13 12C13 13.1046 13.8954 14 15 14Z" fill="#222427"/>
</svg>
