<svg width="25" height="25" viewBox="0 0 25 25" fill="none" xmlns="http://www.w3.org/2000/svg">
<path d="M6 23C6.55228 23 7 22.5523 7 22C7 21.4477 6.55228 21 6 21C5.44772 21 5 21.4477 5 22C5 22.5523 5.44772 23 6 23Z" stroke="#222427" stroke-width="2" stroke-linecap="round" stroke-linejoin="round"/>
<path d="M17 23C17.5523 23 18 22.5523 18 22C18 21.4477 17.5523 21 17 21C16.4477 21 16 21.4477 16 22C16 22.5523 16.4477 23 17 23Z" stroke="#222427" stroke-width="2" stroke-linecap="round" stroke-linejoin="round"/>
<path fill-rule="evenodd" clip-rule="evenodd" d="M22.6436 8.88094L21.1414 16.3922C20.9544 17.3271 20.1336 18 19.1802 18H5.5C4.67157 18 4 17.3284 4 16.5V7V3H1C0.447715 3 0 2.55228 0 2C0 1.44772 0.447715 1 1 1H5C5.55228 1 6 1.44772 6 2V6H16.5997C17.0086 6.79982 17.6075 7.48634 18.3369 8H6V16H19.1802L20.595 8.9259C20.8894 8.97464 21.1918 9 21.5 9C21.8921 9 22.2747 8.95896 22.6436 8.88094Z" fill="#222427"/>
<circle cx="21.5" cy="3.5" r="3.5" fill="#8BBF1F"/>
</svg>
